<svg xmlns="http://www.w3.org/2000/svg" width="700" height="260" viewBox="0 0 700 260">
  <rect width="700" height="260" fill="#030303"/>
  <g opacity="0.55">
    <path d="M72 148C118 78 184 60 250 96C310 128 350 74 416 74C502 74 580 118 620 180" fill="none" stroke="#f5f5f5" stroke-width="3"/>
    <path d="M96 168C150 108 204 104 264 132C326 162 382 112 456 118C520 124 574 152 610 200" fill="none" stroke="#bc30ec" stroke-width="5"/>
    <path d="M128 194C190 154 246 172 306 184C384 200 440 160 508 170C548 176 580 194 604 218" fill="none" stroke="#ff3a18" stroke-width="3"/>
  </g>
  <g fill="#f5f5f5" opacity="0.08">
    <circle cx="150" cy="92" r="30"/>
    <circle cx="320" cy="132" r="42"/>
    <circle cx="516" cy="154" r="54"/>
  </g>
  <g fill="#bc30ec" opacity="0.55">
    <rect x="72" y="74" width="6" height="6"/>
    <rect x="104" y="58" width="8" height="8"/>
    <rect x="198" y="210" width="5" height="5"/>
    <rect x="386" y="52" width="7" height="7"/>
    <rect x="612" y="122" width="6" height="6"/>
  </g>
  <g stroke="#39ff14" stroke-width="1.5" opacity="0.72">
    <path d="M226 74L260 110L226 146"/>
    <path d="M472 102L520 144L476 190"/>
  </g>
  <text x="20" y="236" fill="#a6bcd2" font-family="Inter, Arial, sans-serif" font-size="12">PHASE DUNGEON / CAVE: recurrence veins, noisy fog, low-pressure contour walls</text>
</svg>
