<svg xmlns="http://www.w3.org/2000/svg" width="700" height="260" viewBox="0 0 700 260">
  <rect width="700" height="260" fill="#030303"/>
  <g stroke="#151515" stroke-width="1">
    <path d="M0 32H700M0 64H700M0 96H700M0 128H700M0 160H700M0 192H700M0 224H700"/>
    <path d="M32 0V260M64 0V260M96 0V260M128 0V260M160 0V260M192 0V260M224 0V260M256 0V260M288 0V260M320 0V260M352 0V260M384 0V260M416 0V260M448 0V260M480 0V260M512 0V260M544 0V260M576 0V260M608 0V260M640 0V260M672 0V260"/>
  </g>
  <g fill="none" stroke-linecap="square" stroke-linejoin="miter">
    <path d="M96 64H160V96H224V64H288V128H352V96H448V160H512V192H608" stroke="#f5f5f5" stroke-width="5"/>
    <path d="M96 96V192H192V160H256V192H352V160H448V192H576" stroke="#b83cff" stroke-width="3"/>
    <path d="M288 64H352V32H480V96H544" stroke="#39ff14" stroke-width="2"/>
    <path d="M160 64V32H224M448 160V224H512M352 96V160" stroke="#ff3a18" stroke-width="4"/>
  </g>
  <g fill="#f5f5f5" opacity="0.18">
    <rect x="80" y="48" width="96" height="64"/>
    <rect x="272" y="48" width="96" height="96"/>
    <rect x="432" y="144" width="112" height="64"/>
  </g>
  <g fill="#ff3a18">
    <rect x="344" y="88" width="16" height="16"/>
    <rect x="504" y="184" width="16" height="16"/>
  </g>
  <text x="20" y="236" fill="#a6bcd2" font-family="Inter, Arial, sans-serif" font-size="12">PHASE DUNGEON / MAP: recurrence corridors, kick pressure rooms, stereo spread lanes</text>
</svg>
