<svg xmlns="http://www.w3.org/2000/svg" width="700" height="260" viewBox="0 0 700 260">
  <rect width="700" height="260" fill="#030303"/>
  <g fill="none" stroke-linecap="square" stroke-linejoin="miter">
    <path d="M86 154H170L220 104H318L366 152H466L526 92H616" stroke="#f5f5f5" stroke-width="3"/>
    <path d="M170 154V202H304V152M366 152V214H526V92" stroke="#bc30ec" stroke-width="2"/>
    <path d="M220 104V50H420V100H492" stroke="#39ff14" stroke-width="2"/>
    <path d="M318 104L366 60L420 100M466 152L526 202" stroke="#444" stroke-width="1.5"/>
  </g>
  <g fill="#030303" stroke="#f5f5f5" stroke-width="2">
    <circle cx="170" cy="154" r="10"/>
    <circle cx="318" cy="104" r="10"/>
    <circle cx="366" cy="152" r="10"/>
    <circle cx="526" cy="92" r="10"/>
  </g>
  <g fill="#ff3a18">
    <circle cx="220" cy="104" r="5"/>
    <circle cx="466" cy="152" r="5"/>
    <circle cx="526" cy="202" r="5"/>
  </g>
  <g fill="#bc30ec" opacity="0.82">
    <rect x="408" y="88" width="24" height="24"/>
    <rect x="292" y="140" width="24" height="24"/>
  </g>
  <text x="20" y="236" fill="#a6bcd2" font-family="Inter, Arial, sans-serif" font-size="12">VECTOR LASER / CIRCUIT: phase nodes, pulse routing, stereo branches, spectral glyphs</text>
</svg>
